<svg width="107" height="40" viewBox="0 0 107 40" fill="none" xmlns="http://www.w3.org/2000/svg">
<path fill-rule="evenodd" clip-rule="evenodd" d="M106.109 17.4543V19.2725V19.3452H103.709V23.8543C103.709 24.4361 103.782 24.8725 104 25.0907C104.218 25.3816 104.582 25.4543 105.018 25.4543C105.091 25.4543 105.309 25.4543 105.455 25.3816C105.673 25.3089 105.818 25.2361 105.964 25.1634L106.036 25.0907V26.9089C105.891 26.9816 105.673 27.0543 105.309 27.1271C105.164 27.1271 105 27.1452 104.836 27.1634C104.673 27.1816 104.509 27.1998 104.364 27.1998C102.4 27.1998 101.455 26.1816 101.455 24.1452V19.2725H98.0364V26.9816H95.7091V19.2725H94.1091V17.4543H95.7091V16.1452C95.7091 15.4907 95.8546 14.9089 96.1455 14.3998C96.4364 13.818 96.8727 13.4543 97.3818 13.1634C97.8909 12.8725 98.5455 12.7271 99.2 12.7271C99.7818 12.7271 100.218 12.7998 100.509 12.8725H100.582V14.8361L100.509 14.7634C100.145 14.618 99.7818 14.5452 99.4909 14.5452C98.9818 14.5452 98.6182 14.6907 98.4 14.9816C98.1818 15.2725 98.0364 15.6361 98.0364 16.218V17.4543H101.455V15.2725H101.527L103.709 14.618H103.782V17.4543H106.109ZM46.5455 13.818C46.7637 13.5998 47.1273 13.4543 47.4909 13.4543C47.9273 13.4543 48.2182 13.5998 48.5091 13.818C48.7273 14.1089 48.8727 14.3998 48.8727 14.7634C48.8727 15.1271 48.7273 15.4907 48.4364 15.7089C48.2182 15.9271 47.8546 16.0725 47.4909 16.0725C47.1273 16.0725 46.8364 15.9271 46.5455 15.7089C46.2546 15.418 46.1091 15.1271 46.1091 14.7634C46.1091 14.3998 46.2546 14.0361 46.5455 13.818ZM37.4546 22.0361L36.8 23.7816H36.7273C36.6546 23.418 36.4364 22.7634 36.1455 22.0361L32.7273 13.7452H29.3818V26.9816H31.5637V18.8361V17.018C31.5637 16.813 31.5406 16.6312 31.5204 16.4725C31.5048 16.3496 31.4909 16.2405 31.4909 16.1452H31.5637C31.6144 16.5002 31.7004 16.7844 31.7725 17.0226C31.8039 17.126 31.8325 17.2208 31.8546 17.3089L35.9273 26.9816H37.4546L41.5273 17.2361C41.5542 17.1555 41.5811 17.0449 41.6117 16.9193L41.6117 16.9192L41.6117 16.9192L41.6117 16.9192L41.6117 16.9192C41.6638 16.7051 41.7266 16.4471 41.8182 16.218H41.8909C41.8182 17.1634 41.8182 18.0361 41.8182 18.618V27.0543H44.1455V13.7452H40.9455L37.4546 22.0361ZM46.3273 17.4543H48.5818V26.9816H46.3273V17.4543ZM56.7273 17.3816C56.2909 17.3089 55.8546 17.2361 55.4182 17.2361C54.4 17.2361 53.4546 17.4543 52.6546 17.8907C51.8546 18.3271 51.2 18.9816 50.8364 19.7089C50.4 20.5089 50.1818 21.3816 50.1818 22.4725C50.1818 23.418 50.4 24.218 50.7637 24.9452C51.2 25.6725 51.7091 26.2543 52.5091 26.618C53.2364 26.9816 54.1091 27.1998 55.0546 27.1998C56.1455 27.1998 57.0909 26.9816 57.8182 26.5452V24.5089L57.7455 24.5816C57.3818 24.7998 57.0182 25.018 56.6546 25.1634C56.2182 25.3089 55.8546 25.3816 55.5637 25.3816C54.6182 25.3816 53.9637 25.0907 53.4546 24.5816C52.9455 23.9998 52.6546 23.2725 52.6546 22.3271C52.6546 21.3816 52.9455 20.5816 53.4546 19.9998C53.9637 19.418 54.6909 19.1271 55.5637 19.1271C56.2909 19.1271 57.0909 19.3452 57.7455 19.8543L57.8182 19.9271V17.7452C57.5273 17.5998 57.1637 17.4543 56.7273 17.3816ZM62.7637 17.818C63.2 17.4543 63.7091 17.3089 64.2909 17.3089C64.6546 17.3089 64.9455 17.3816 65.0182 17.4543H65.0909V19.6361L65.0182 19.5634C64.9455 19.4907 64.7273 19.418 64.5091 19.3452C64.4 19.3452 64.2909 19.3271 64.1818 19.3089C64.0727 19.2907 63.9637 19.2725 63.8546 19.2725C63.2727 19.2725 62.7637 19.5634 62.4 20.0725C61.9637 20.5816 61.8182 21.3089 61.8182 22.1089V26.9816H59.6364V17.4543H61.8909V19.1271C62.1091 18.5452 62.4 18.1089 62.7637 17.818ZM70.4727 17.2361C68.8727 17.2361 67.5637 17.6725 66.6909 18.618C65.7455 19.5634 65.3091 20.7998 65.3091 22.3271C65.3091 23.7816 65.7455 25.018 66.6182 25.8907C67.4909 26.7634 68.7273 27.1998 70.1818 27.1998C71.7818 27.1998 73.0182 26.7634 73.8909 25.818C74.8364 24.8725 75.2727 23.6361 75.2727 22.1089C75.2727 20.5816 74.8364 19.418 73.9637 18.5452C73.2364 17.6725 72 17.2361 70.4727 17.2361ZM70.4 25.3816C71.2 25.3816 71.8546 25.0907 72.2909 24.5816C72.8 23.9998 72.9455 23.1998 73.0182 22.3271C73.0182 21.3089 72.7273 20.5089 72.2909 19.9998C71.8546 19.4907 71.2 19.1998 70.4 19.1998C69.5273 19.1998 68.9455 19.418 68.4364 19.9998C67.9273 20.5089 67.7091 21.3089 67.7091 22.3271C67.7091 23.2725 67.9273 24.0725 68.4364 24.5816C68.8727 25.0907 69.6 25.3816 70.4 25.3816ZM80.4364 21.3816C79.7091 21.0907 79.2727 20.8725 79.0546 20.6543C78.9091 20.5089 78.7637 20.218 78.7637 19.9271C78.7637 19.6361 78.8364 19.418 79.1273 19.2725C79.4182 19.1271 79.7091 18.9816 80.1455 18.9816C80.5091 18.9816 80.9455 19.0543 81.3091 19.1271C81.6027 19.1858 81.8963 19.3393 82.1516 19.4728C82.2125 19.5047 82.2713 19.5354 82.3273 19.5634L82.4 19.6361V17.5271H82.3273C82.219 17.5 82.1107 17.4628 81.9949 17.4231C81.7996 17.3561 81.583 17.2818 81.3091 17.2361C80.8727 17.1634 80.5091 17.1634 80.2182 17.1634C79.1273 17.1634 78.2546 17.4543 77.5273 17.9634C76.8 18.4725 76.5091 19.1998 76.5091 20.0725C76.5091 20.5089 76.5818 20.9452 76.7273 21.2361C76.8727 21.5271 77.0909 21.8907 77.4546 22.1089C77.7455 22.3271 78.2546 22.618 78.8364 22.9089C79.0061 22.9816 79.1677 23.0462 79.3158 23.1055C79.6121 23.224 79.8546 23.321 80 23.418C80.2182 23.5634 80.4364 23.7089 80.5091 23.8543C80.5818 23.9998 80.6546 24.1452 80.6546 24.3634C80.6546 25.018 80.1455 25.3089 79.1273 25.3089C78.7637 25.3089 78.3273 25.2361 77.8909 25.0907C77.3818 24.9452 76.9455 24.7271 76.5818 24.4361L76.5091 24.3634V26.5452H76.5818C76.9455 26.6907 77.3091 26.8361 77.8182 26.9089L77.9274 26.9246L78.0363 26.9405L78.0364 26.9405C78.4531 27.0013 78.8167 27.0543 79.1273 27.0543C80.2909 27.0543 81.2364 26.7634 81.9637 26.2543C82.6909 25.6725 83.0546 25.018 83.0546 24.0725C83.0546 23.418 82.9091 22.8361 82.4727 22.4725C82.3587 22.4074 82.2374 22.3349 82.108 22.2576C81.6595 21.9898 81.1137 21.6638 80.4364 21.3816ZM85.3091 18.618C86.1818 17.6725 87.4909 17.2361 89.0909 17.2361C90.6182 17.2361 91.7818 17.6725 92.5818 18.5452C93.4546 19.418 93.8909 20.5816 93.8909 22.1089C93.8909 23.6361 93.4546 24.8725 92.5091 25.818C91.6364 26.7634 90.4 27.1998 88.8 27.1998C87.3455 27.1998 86.1091 26.7634 85.2364 25.8907C84.3637 25.018 83.9273 23.7816 83.9273 22.3271C83.9273 20.7998 84.4364 19.5634 85.3091 18.618ZM90.9091 24.5816C90.4727 25.0907 89.8182 25.3816 89.0182 25.3816C88.1455 25.3816 87.4909 25.0907 87.0546 24.5816C86.5455 24.0725 86.3273 23.2725 86.3273 22.3271C86.3273 21.3089 86.5455 20.5089 87.0546 19.9998C87.5637 19.418 88.1455 19.1998 89.0182 19.1998C89.8182 19.1998 90.4727 19.4907 90.9091 19.9998C91.3455 20.5089 91.6364 21.3089 91.6364 22.3271C91.5637 23.1998 91.3455 23.9998 90.9091 24.5816Z" fill="#9AAA97"/>
<path d="M0 9.30908H10.7636V19.7818H0V9.30908Z" fill="#9AAA97"/>
<path d="M11.9272 9.30908H22.6909V19.7818H11.9272V9.30908Z" fill="#9AAA97"/>
<path d="M0 20.8726H10.7636V31.418H0V20.8726Z" fill="#9AAA97"/>
<path d="M11.9272 20.8726H22.6909V31.418H11.9272V20.8726Z" fill="#9AAA97"/>
</svg>
