<svg width="92" height="26" viewBox="0 0 92 26" fill="none" xmlns="http://www.w3.org/2000/svg">
<path d="M68.019 19.6619C64.9317 19.6619 63.0133 17.8735 63.0133 14.9909C63.0133 11.9993 64.7835 10.138 67.634 10.138H67.8732C68.2307 10.138 68.723 10.1497 69.3956 10.2337V6.62256H71.4091V19.3364C71.4091 19.3364 69.4959 19.6619 68.019 19.6619ZM68.0009 11.7234C66.0504 11.7234 65.102 12.7762 65.102 14.9408C65.102 16.8843 66.2464 18.0922 68.0849 18.0922C68.4384 18.0922 68.8432 18.0689 69.395 18.0217V11.8529C68.8438 11.7642 68.3993 11.7234 68.0009 11.7234ZM40.4385 19.3702L34.9994 9.87845L34.9976 19.3702H33.1019V7.354H35.7559L41.195 16.7612L41.1927 7.354H43.1134V19.3702H40.4385ZM57.7637 19.5551C56.848 19.5551 55.8931 19.4525 54.7563 19.2337L54.6332 19.2104V17.5317L54.8129 17.5702C55.8156 17.7843 56.6812 17.9668 57.5473 17.9668C58.2467 17.9668 59.8758 17.8572 59.8758 16.8277C59.8758 15.9644 58.7501 15.7474 57.846 15.5742L57.7888 15.5625C57.6197 15.531 57.4604 15.499 57.3263 15.4651C55.9999 15.121 54.5848 14.6036 54.5848 12.8264C54.5848 11.0928 55.9567 10.0995 58.3493 10.0995C59.4978 10.0995 60.3313 10.222 61.0015 10.3223L61.327 10.3702V11.9993L61.1538 11.9678C60.3955 11.8284 59.5066 11.6849 58.6521 11.6849C57.7019 11.6849 56.5744 11.8628 56.5744 12.708C56.5744 13.4096 57.4972 13.6103 58.5657 13.843C60.0601 14.1662 61.9126 14.5721 61.9126 16.6113C61.9126 18.4819 60.4019 19.5551 57.7637 19.5551ZM77.0617 19.5551C74.9776 19.5551 73.0475 19.1876 73.0475 16.5267C73.0475 13.6307 76.0322 13.6307 77.8164 13.6307C77.9937 13.6307 78.8325 13.6698 79.0897 13.6809C79.0874 12.0564 79.067 11.6691 76.7111 11.6691C75.7773 11.6691 74.7402 11.8534 73.8244 12.0179L73.6494 12.0494V10.4454L73.7673 10.4203C74.8288 10.2045 75.8525 10.0995 76.896 10.0995C79.179 10.0995 81.1131 10.3293 81.1131 13.1617V19.3387L80.9743 19.3545C79.393 19.5318 78.1378 19.5551 77.0622 19.5551H77.0617ZM77.7663 15.0638C76.0456 15.0638 74.9793 15.317 74.9793 16.5769C74.9793 18.0351 76.3396 18.1558 77.6158 18.1558C78.0917 18.1558 78.9486 18.0946 79.2105 18.0759V15.114C78.8418 15.0982 77.8823 15.0638 77.7663 15.0638ZM48.8092 19.5551C46.7222 19.5551 44.7927 19.1876 44.7927 16.5267C44.7927 13.6307 47.7773 13.6307 49.561 13.6307C49.7389 13.6307 50.5794 13.6698 50.8372 13.6809C50.8349 12.0564 50.8122 11.6691 48.4563 11.6691C47.5219 11.6691 46.4848 11.8534 45.569 12.0179L45.394 12.0494V10.4454L45.5148 10.4203C46.5433 10.2076 47.5909 10.1001 48.6412 10.0995C50.9236 10.0995 52.8583 10.3293 52.8583 13.1617V19.3387L52.7189 19.3545C51.1382 19.5318 49.8824 19.5551 48.8092 19.5551ZM49.5109 15.0638C47.7908 15.0638 46.7268 15.317 46.7268 16.5769C46.7268 18.0351 48.0847 18.1558 49.3609 18.1558C49.8392 18.1558 50.6961 18.0946 50.958 18.0759V15.114C50.5864 15.0982 49.6275 15.0638 49.5114 15.0638" fill="#9AAA97"/>
<mask id="mask0" mask-type="alpha" maskUnits="userSpaceOnUse" x="82" y="9" width="10" height="15">
<path d="M82.428 9.55469H91.193V23.5535H82.428V9.55469Z" fill="white"/>
</mask>
<g mask="url(#mask0)">
<path d="M89.1308 23.4532V19.5113C88.3451 19.621 87.9281 19.621 87.591 19.621C86.793 19.621 85.907 19.4478 85.2211 19.1584C83.6853 18.5197 82.7695 16.8982 82.7695 14.8176C82.7695 13.7794 83.0227 11.8808 84.7154 10.8577C85.5652 10.3503 86.5679 10.1333 88.0762 10.1333C88.6158 10.1333 89.3449 10.1741 90.0489 10.215L91.1927 10.2745V22.5397L89.1308 23.4532ZM87.9258 11.7192C85.8796 11.7187 84.8425 12.7627 84.8425 14.8176C84.8425 17.4634 86.3894 18.0193 87.6901 18.0193C88.0068 18.0193 88.3626 18.0193 89.1506 17.919V11.7764C88.5335 11.7356 88.2483 11.7192 87.9252 11.7192H87.9258Z" fill="#9AAA97"/>
</g>
<mask id="mask1" mask-type="alpha" maskUnits="userSpaceOnUse" x="15" y="0" width="17" height="20">
<path d="M15.9336 0.231445H31.6822V19.4705H15.9336V0.231445Z" fill="white"/>
</mask>
<g mask="url(#mask1)">
<path d="M24.1063 0.231445L17.4464 18.529C17.364 18.7543 17.2199 18.9519 17.0305 19.0991C16.8411 19.2463 16.6141 19.3372 16.3755 19.3614V19.3701H23.4157C23.9669 19.3701 24.4388 19.0196 24.6144 18.5296L31.2766 0.231445H24.1063Z" fill="#9AAA97"/>
</g>
<path d="M15.8011 19.0927C16.2094 19.0927 16.5669 18.8897 16.7857 18.5823C16.8084 18.5502 16.8883 18.4382 16.9449 18.286L19.3877 11.5712L17.9586 7.64981C17.8754 7.45124 17.7406 7.27853 17.5681 7.1496C17.3957 7.02066 17.1919 6.94018 16.9779 6.9165C16.7639 6.89282 16.5474 6.9268 16.351 7.01492C16.1545 7.10304 15.9852 7.24209 15.8606 7.41767C15.8372 7.44975 15.7422 7.59265 15.7013 7.71397L13.2585 14.4264L14.694 18.3636C14.7871 18.58 14.9416 18.7643 15.1383 18.8939C15.3351 19.0235 15.5655 19.0926 15.8011 19.0927Z" fill="#9AAA97"/>
<mask id="mask2" mask-type="alpha" maskUnits="userSpaceOnUse" x="0" y="6" width="17" height="20">
<path d="M0.768066 6.05518H16.5167V25.7684H0.768066V6.05518Z" fill="white"/>
</mask>
<g mask="url(#mask2)">
<path d="M16.3231 6.62891H9.20527C8.65407 6.62891 8.18219 6.97771 8.00429 7.47L1.34436 25.7676H8.51466L15.1752 7.47058C15.2616 7.23254 15.4169 7.0256 15.6213 6.87612C15.8257 6.72665 16.07 6.6414 16.3231 6.63124V6.62891Z" fill="#9AAA97"/>
</g>
</svg>
